<svg xmlns="http://www.w3.org/2000/svg" width="134" height="48" viewBox="0 0 134 48">
  <g fill="#FFFFFF" fill-rule="evenodd">
    <path d="M0 2.58068848C0 1.15541359 1.1509319 0 2.58068848 0L45.4193115 0C46.8445864 0 48 1.1509319 48 2.58068848L48 45.4193115C48 46.8445864 46.8490681 48 45.4193115 48L2.58068848 48C1.15541359 48 0 46.8490681 0 45.4193115L0 2.58068848zM29.2501504 8.35835835C30.2276486 7.37140428 31.814706 7.37364527 32.7904983 8.35887686 33.7682801 9.34611729 33.7680419 10.9469909 32.7910118 11.9334722L20.3969697 24.4474077C19.4194715 25.4343618 17.8324141 25.4321208 16.8566219 24.4468892 15.87884 23.4596488 15.8790782 21.8587752 16.8561083 20.8722939L29.2501504 8.35835835zM28.364935 23.5525923C29.3424333 22.5656382 30.9294906 22.5678792 31.9052829 23.5531108 32.8830648 24.5403512 32.8828265 26.1412248 31.9057965 27.1277061L19.5117544 39.6416417C18.5342561 40.6285957 16.9471988 40.6263547 15.9714065 39.6411231 14.9936246 38.6538827 14.9938629 37.0530091 15.9708929 36.0665278L28.364935 23.5525923zM60.966147 11.0717143L60.966147 13.7622857 66.0101981 13.7622857 66.0101981 16.3607143 60.966147 16.3607143 60.966147 21.4285714 57.8550351 21.4285714 57.8550351 8.38114286 66.4336038 8.38114286 66.4336038 11.0717143 60.966147 11.0717143zM68.9955154 21.4285714L68.9955154 8.38114286 72.161854 8.38114286 72.161854 21.4285714 68.9955154 21.4285714zM80.9643981 11.0717143L80.9643981 21.4285714 77.8164684 21.4285714 77.8164684 11.0717143 74.1346793 11.0717143 74.1346793 8.38114286 84.6461873 8.38114286 84.6461873 11.0717143 80.9643981 11.0717143zM94.9030381 21.4285714L89.6564886 12.8961429 89.6012617 12.8961429 89.6748975 21.4285714 86.6190125 21.4285714 86.6190125 8.38114286 90.208757 8.38114286 95.4368975 16.8951429 95.4921244 16.8951429 95.4184886 8.38114286 98.4743736 8.38114286 98.4743736 21.4285714 94.9030381 21.4285714zM101.699007 21.4285714L101.699007 8.38114286 110.461665 8.38114286 110.461665 11.0532857 104.736483 11.0532857 104.736483 13.5042857 110.148713 13.5042857 110.148713 16.029 104.736483 16.029 104.736483 18.738 110.793026 18.738 110.793026 21.4285714 101.699007 21.4285714zM120.29511 11.772C120.025111 11.4279983 119.672277 11.1546439 119.236596 10.9519286 118.800915 10.7492133 118.380582 10.6478571 117.975583 10.6478571 117.766947 10.6478571 117.555247 10.6662855 117.340475 10.7031429 117.125702 10.7400002 116.93241 10.8106423 116.760593 10.9150714 116.588775 11.0195005 116.444573 11.154642 116.327983 11.3205 116.211392 11.486358 116.153098 11.6982844 116.153098 11.9562857 116.153098 12.1774297 116.199119 12.3617135 116.291165 12.5091429 116.38321 12.6565722 116.518207 12.7855709 116.696161 12.8961429 116.874116 13.0067148 117.085816 13.108071 117.33127 13.2002143 117.576724 13.2923576 117.852855 13.3875709 118.159673 13.4858571 118.60149 13.6332865 119.061709 13.7960705 119.540344 13.9742143 120.018979 14.152358 120.454653 14.3888557 120.847379 14.6837143 121.240105 14.9785729 121.565326 15.3440692 121.823053 15.7802143 122.080779 16.2163593 122.209641 16.7599967 122.209641 17.4111429 122.209641 18.1605752 122.071575 18.8086401 121.795439 19.3553571 121.519304 19.9020742 121.148061 20.3535696 120.681698 20.7098571 120.215336 21.0661446 119.681482 21.3302849 119.08012 21.5022857 118.478758 21.6742866 117.858996 21.7602857 117.220816 21.7602857 116.288092 21.7602857 115.386063 21.5975016 114.514701 21.2719286 113.64334 20.9463555 112.919262 20.4825744 112.342446 19.8805714L114.404248 17.7797143C114.723338 18.1728591 115.143671 18.5014987 115.665261 18.7656429 116.18685 19.029787 116.705363 19.1618571 117.220816 19.1618571 117.453998 19.1618571 117.681039 19.137286 117.901947 19.0881429 118.122856 19.0389998 118.316148 18.9591434 118.481829 18.8485714 118.647511 18.7379994 118.77944 18.5905723 118.877622 18.4062857 118.975803 18.2219991 119.024893 18.0008584 119.024893 17.7428571 119.024893 17.4971416 118.963531 17.2882866 118.840804 17.1162857 118.718077 16.9442849 118.543194 16.7876436 118.316149 16.6463571 118.089104 16.5050707 117.806836 16.376072 117.469337 16.2593571 117.131838 16.1426423 116.748322 16.016715 116.318778 15.8815714 115.901507 15.7464279 115.493446 15.5867152 115.094583 15.4024286 114.695721 15.2181419 114.339818 14.9816443 114.026864 14.6929286 113.713911 14.4042128 113.462324 14.0540735 113.272098 13.6425 113.081871 13.2309265 112.986759 12.7302887 112.986759 12.1405714 112.986759 11.4157107 113.134029 10.7952883 113.428574 10.2792857 113.723118 9.76328313 114.109702 9.33943023 114.588337 9.00771429 115.066972 8.67599834 115.606963 8.43335791 116.208324 8.27978571 116.809686 8.12621352 117.417175 8.04942857 118.03081 8.04942857 118.767172 8.04942857 119.518863 8.18457008 120.285906 8.45485714 121.052949 8.72514421 121.724869 9.12442593 122.301685 9.65271429L120.29511 11.772zM131.711725 11.772C131.441726 11.4279983 131.088891 11.1546439 130.65321 10.9519286 130.21753 10.7492133 129.797196 10.6478571 129.392198 10.6478571 129.183562 10.6478571 128.971861 10.6662855 128.757089 10.7031429 128.542317 10.7400002 128.349025 10.8106423 128.177207 10.9150714 128.00539 11.0195005 127.861188 11.154642 127.744597 11.3205 127.628006 11.486358 127.569712 11.6982844 127.569712 11.9562857 127.569712 12.1774297 127.615734 12.3617135 127.707779 12.5091429 127.799824 12.6565722 127.934822 12.7855709 128.112776 12.8961429 128.29073 13.0067148 128.502431 13.108071 128.747885 13.2002143 128.993338 13.2923576 129.26947 13.3875709 129.576287 13.4858571 130.018104 13.6332865 130.478323 13.7960705 130.956958 13.9742143 131.435593 14.152358 131.871267 14.3888557 132.263993 14.6837143 132.656719 14.9785729 132.981941 15.3440692 133.239667 15.7802143 133.497394 16.2163593 133.626255 16.7599967 133.626255 17.4111429 133.626255 18.1605752 133.488189 18.8086401 133.212054 19.3553571 132.935918 19.9020742 132.564675 20.3535696 132.098313 20.7098571 131.63195 21.0661446 131.098096 21.3302849 130.496734 21.5022857 129.895372 21.6742866 129.275611 21.7602857 128.637431 21.7602857 127.704706 21.7602857 126.802677 21.5975016 125.931316 21.2719286 125.059955 20.9463555 124.335877 20.4825744 123.75906 19.8805714L125.820862 17.7797143C126.139952 18.1728591 126.560286 18.5014987 127.081875 18.7656429 127.603464 19.029787 128.121978 19.1618571 128.637431 19.1618571 128.870612 19.1618571 129.097653 19.137286 129.318562 19.0881429 129.53947 19.0389998 129.732762 18.9591434 129.898444 18.8485714 130.064125 18.7379994 130.196054 18.5905723 130.294236 18.4062857 130.392417 18.2219991 130.441508 18.0008584 130.441508 17.7428571 130.441508 17.4971416 130.380145 17.2882866 130.257418 17.1162857 130.134691 16.9442849 129.959808 16.7876436 129.732763 16.6463571 129.505718 16.5050707 129.223451 16.376072 128.885952 16.2593571 128.548453 16.1426423 128.164937 16.016715 127.735393 15.8815714 127.318121 15.7464279 126.91006 15.5867152 126.511198 15.4024286 126.112335 15.2181419 125.756432 14.9816443 125.443479 14.6929286 125.130525 14.4042128 124.878939 14.0540735 124.688712 13.6425 124.498485 13.2309265 124.403373 12.7302887 124.403373 12.1405714 124.403373 11.4157107 124.550643 10.7952883 124.845188 10.2792857 125.139733 9.76328313 125.526317 9.33943023 126.004952 9.00771429 126.483587 8.67599834 127.023577 8.43335791 127.624939 8.27978571 128.226301 8.12621352 128.83379 8.04942857 129.447424 8.04942857 130.183786 8.04942857 130.935477 8.18457008 131.70252 8.45485714 132.469564 8.72514421 133.141483 9.12442593 133.7183 9.65271429L131.711725 11.772zM69.434262 39.4932857C68.796082 39.8250017 68.0505272 40.0952847 67.1975751 40.3041429 66.344623 40.513001 65.4149805 40.6174286 64.4086198 40.6174286 63.365441 40.6174286 62.4051173 40.4515731 61.5276198 40.1198571 60.6501223 39.7881412 59.8953631 39.3212887 59.2633195 38.7192857 58.6312759 38.1172827 58.1373074 37.3955042 57.7813994 36.5539286 57.4254913 35.7123529 57.2475399 34.7755766 57.2475399 33.7435714 57.2475399 32.6992805 57.4285594 31.75329 57.7906038 30.9055714 58.1526482 30.0578529 58.6527529 29.3360744 59.2909329 28.7402143 59.9291129 28.1443542 60.6777359 27.6867159 61.5368243 27.3672857 62.3959127 27.0478555 63.322487 26.8881429 64.3165751 26.8881429 65.3474812 26.8881429 66.3047368 27.0447841 67.1883706 27.3580714 68.0720044 27.6713587 68.7899461 28.0921402 69.3422173 28.6204286L67.225154 30.7471173C67.225154 30.7471173 67.1042733 30.6292762 67.0392298 30.57338 66.7857735 30.3555683 66.4857184 30.1683712 66.1390607 30.0117857 65.6358803 29.7844989 65.0652087 29.6708571 64.4270288 29.6708571 63.8747576 29.6708571 63.3654486 29.7722133 62.8990863 29.9749286 62.432724 30.1776439 62.0277312 30.4602125 61.6840958 30.8226429 61.3404605 31.1850732 61.0735334 31.6150689 60.8833067 32.1126429 60.69308 32.6102168 60.5979681 33.1538542 60.5979681 33.7435714 60.5979681 34.3455744 60.6838756 34.8984261 60.8556933 35.4021429 61.027511 35.9058597 61.2821655 36.3389268 61.6196645 36.7013571 61.9571636 37.0637875 62.3744288 37.3463561 62.8714728 37.5490714 63.3685169 37.7517867 63.9361203 37.8531429 64.5743003 37.8531429 64.9424811 37.8531429 65.2922475 37.8255003 65.6236102 37.7702143 65.9549729 37.7149283 66.2617856 37.6258578 66.5440575 37.503L66.5440575 35.1257143 64.0588498 35.1257143 64.0588498 33.9108712 64.0588498 32.5825714 65.382784 32.5825714 69.434262 32.5825714 69.434262 39.4932857zM72.5484419 40.2857143L72.5484419 27.2382857 81.3111 27.2382857 81.3111 29.9104286 75.5859179 29.9104286 75.5859179 32.3614286 80.998148 32.3614286 80.998148 34.8861429 75.5859179 34.8861429 75.5859179 37.5951429 81.6424611 37.5951429 81.6424611 40.2857143 72.5484419 40.2857143zM92.543625 40.2857143L87.2970755 31.7532857 87.2418486 31.7532857 87.3154844 40.2857143 84.2595994 40.2857143 84.2595994 27.2382857 87.8493438 27.2382857 93.0774844 35.7522857 93.1327112 35.7522857 93.0590755 27.2382857 96.1149604 27.2382857 96.1149604 40.2857143 92.543625 40.2857143zM99.339594 40.2857143L99.339594 27.2382857 108.102252 27.2382857 108.102252 29.9104286 102.37707 29.9104286 102.37707 32.3614286 107.7893 32.3614286 107.7893 34.8861429 102.37707 34.8861429 102.37707 37.5951429 108.433613 37.5951429 108.433613 40.2857143 99.339594 40.2857143zM117.935697 30.6291429C117.665698 30.2851411 117.312863 30.0117867 116.877183 29.8090714 116.441502 29.6063561 116.021169 29.505 115.61617 29.505 115.407534 29.505 115.195834 29.5234284 114.981061 29.5602857 114.766289 29.597143 114.572997 29.6677852 114.40118 29.7722143 114.229362 29.8766434 114.08516 30.0117849 113.968569 30.1776429 113.851979 30.3435008 113.793684 30.5554273 113.793684 30.8134286 113.793684 31.0345725 113.839706 31.2188564 113.931752 31.3662857 114.023797 31.513715 114.158794 31.6427137 114.336748 31.7532857 114.514702 31.8638577 114.726403 31.9652138 114.971857 32.0573571 115.217311 32.1495005 115.493442 32.2447138 115.80026 32.343 116.242076 32.4904293 116.702295 32.6532134 117.18093 32.8313571 117.659565 33.0095009 118.095239 33.2459985 118.487966 33.5408571 118.880692 33.8357158 119.205913 34.2012121 119.46364 34.6373571 119.721366 35.0735022 119.850228 35.6171396 119.850228 36.2682857 119.850228 37.017718 119.712162 37.665783 119.436026 38.2125 119.159891 38.759217 118.788647 39.2107125 118.322285 39.567 117.855923 39.9232875 117.322069 40.1874277 116.720707 40.3594286 116.119345 40.5314294 115.499583 40.6174286 114.861403 40.6174286 113.928679 40.6174286 113.026649 40.4546445 112.155288 40.1290714 111.283927 39.8034984 110.559849 39.3397173 109.983033 38.7377143L112.044835 36.6368571C112.363925 37.030002 112.784258 37.3586415 113.305847 37.6227857 113.827437 37.8869299 114.34595 38.019 114.861403 38.019 115.094584 38.019 115.321626 37.9944288 115.542534 37.9452857 115.763443 37.8961426 115.956735 37.8162863 116.122416 37.7057143 116.288097 37.5951423 116.420027 37.4477152 116.518208 37.2634286 116.61639 37.0791419 116.66548 36.8580013 116.66548 36.6 116.66548 36.3542845 116.604117 36.1454294 116.481391 35.9734286 116.358664 35.8014277 116.18378 35.6447864 115.956736 35.5035 115.729691 35.3622136 115.447423 35.2332149 115.109924 35.1165 114.772425 34.9997851 114.388909 34.8738578 113.959365 34.7387143 113.542093 34.6035708 113.134033 34.4438581 112.73517 34.2595714 112.336308 34.0752848 111.980405 33.8387872 111.667451 33.5500714 111.354498 33.2613557 111.102911 32.9112163 110.912684 32.4996429 110.722458 32.0880694 110.627346 31.5874315 110.627346 30.9977143 110.627346 30.2728535 110.774616 29.6524312 111.06916 29.1364286 111.363705 28.620426 111.750289 28.1965731 112.228924 27.8648571 112.707559 27.5331412 113.247549 27.2905008 113.848911 27.1369286 114.450273 26.9833564 115.057762 26.9065714 115.671397 26.9065714 116.407758 26.9065714 117.15945 27.0417129 117.926493 27.312 118.693536 27.5822871 119.365456 27.9815688 119.942272 28.5098571L117.935697 30.6291429z"/>
  </g>
</svg>
